<svg width="22" height="17" viewBox="0 0 22 17" fill="none" xmlns="http://www.w3.org/2000/svg">
<g clip-path="url(#clip0_2293_29074)">
<path d="M7.40525 1.09682C7.39591 1.09682 7.37723 1.10148 7.34922 1.11082C7.23715 1.13884 7.14843 1.17153 7.08306 1.20888C6.98033 1.26491 6.83558 1.37932 6.6488 1.55208C6.46203 1.72485 6.16785 2.01202 5.76628 2.41359L4.07128 4.12261C2.19417 6.0184 1.21825 7.01765 1.14354 7.12038C1.05015 7.26046 0.982448 7.39121 0.940423 7.51261C0.898398 7.63402 0.872716 7.7741 0.863377 7.93286C0.854039 8.09162 0.861043 8.23638 0.88439 8.36712C0.907737 8.49786 0.956766 8.64262 1.03148 8.80138L1.04549 8.82939C1.08284 8.9041 1.13887 8.98348 1.21358 9.06753C1.33499 9.19828 1.59181 9.4691 1.98404 9.88001L5.00983 12.9338C5.75694 13.6809 6.25657 14.1759 6.50872 14.4187C6.76087 14.6615 6.9243 14.8063 6.99901 14.853C7.32587 15.0211 7.66674 15.0818 8.02162 15.0351C8.37649 14.9884 8.68234 14.839 8.93916 14.5868C9.19598 14.3347 9.35007 14.0288 9.40143 13.6693C9.4528 13.3097 9.39443 12.9618 9.22633 12.6256C9.18897 12.5509 9.07691 12.4155 8.89013 12.2194C8.70335 12.0233 8.3298 11.6404 7.76947 11.0707L6.39665 9.69791H13.3027L17.7434 9.6839C18.6679 9.6839 19.2656 9.67923 19.5364 9.66989C19.7512 9.66055 19.8866 9.64654 19.9427 9.62787C20.0921 9.58117 20.2205 9.52514 20.3279 9.45977C20.4353 9.39439 20.5404 9.31034 20.6431 9.20762C20.8112 9.03018 20.9326 8.85274 21.0073 8.6753C21.082 8.49786 21.1194 8.29241 21.1194 8.05894C21.1194 7.82547 21.082 7.61768 21.0073 7.43557C20.9326 7.25346 20.8112 7.08303 20.6431 6.92426C20.5404 6.8122 20.4376 6.72348 20.3349 6.65811C20.2322 6.59274 20.1014 6.5367 19.9427 6.49001C19.8866 6.47133 19.7512 6.45732 19.5364 6.44798C19.2563 6.43864 18.6632 6.43397 17.7574 6.43397L6.42467 6.40596L7.79748 5.00513C8.34847 4.43546 8.7267 4.04323 8.93215 3.82843C9.10959 3.63232 9.22166 3.49223 9.26835 3.40818C9.41778 3.10934 9.47147 2.79415 9.42945 2.46262C9.38742 2.13109 9.25901 1.83925 9.04422 1.5871C8.82943 1.33496 8.5586 1.16686 8.23174 1.08281C8.11967 1.05479 7.98193 1.04078 7.81849 1.04078C7.65506 1.04078 7.51732 1.05946 7.40525 1.09682Z" fill="#FCFCFC"/>
</g>
<defs>
<clipPath id="clip0_2293_29074">
<rect width="20.27" height="16.09" fill="white" transform="matrix(1 0 0 -1 0.859375 16.0898)"/>
</clipPath>
</defs>
</svg>
