<svg width="21" height="17" viewBox="0 0 21 17" fill="none" xmlns="http://www.w3.org/2000/svg">
<g clip-path="url(#clip0_2293_29071)">
<path d="M12.8736 1.08256C12.5468 1.17595 12.2783 1.34872 12.0681 1.60087C11.858 1.85302 11.7319 2.14252 11.6899 2.46938C11.6479 2.79624 11.7063 3.10909 11.865 3.40794C11.9117 3.49199 12.0238 3.63207 12.2012 3.82819C12.388 4.04298 12.7662 4.43521 13.3359 5.00488L14.6947 6.40571L3.376 6.43373C2.46079 6.43373 1.86777 6.4384 1.59695 6.44774C1.37281 6.45708 1.23273 6.47108 1.1767 6.48976C1.01794 6.53646 0.887192 6.59249 0.784464 6.65786C0.681737 6.72323 0.579009 6.81195 0.476282 6.92402C0.308182 7.08278 0.186777 7.25321 0.112066 7.43532C0.0373554 7.61743 0 7.82522 0 8.05869C0 8.29216 0.0373554 8.49762 0.112066 8.67506C0.186777 8.85249 0.308182 9.02993 0.476282 9.20737C0.579009 9.3101 0.684072 9.39415 0.791469 9.45952C0.898865 9.52489 1.02727 9.58092 1.1767 9.62762C1.23273 9.6463 1.37281 9.6603 1.59695 9.66964C1.86777 9.67898 2.46079 9.68365 3.376 9.68365L7.83064 9.69766H14.7227L13.3639 11.0705C12.8036 11.6308 12.4277 12.0114 12.2362 12.2121C12.0448 12.4129 11.9304 12.5507 11.893 12.6254C11.7063 12.9896 11.6526 13.3608 11.7319 13.7391C11.8113 14.1173 11.9981 14.4301 12.2923 14.6776C12.5865 14.9251 12.9343 15.0488 13.3359 15.0488C13.3919 15.0488 13.504 15.0395 13.6721 15.0208L13.7421 15.0068C13.9009 14.9694 14.0223 14.9181 14.1064 14.8527C14.2371 14.7687 14.4472 14.5866 14.7367 14.3064C14.9328 14.1103 15.3904 13.6527 16.1095 12.9336L18.7711 10.244C19.3034 9.70233 19.6536 9.33811 19.8217 9.15134C19.9525 9.01125 20.0365 8.90386 20.0739 8.82915C20.2046 8.577 20.27 8.31551 20.27 8.04468C20.27 7.77385 20.2046 7.51237 20.0739 7.26022C20.0365 7.17617 19.8357 6.94737 19.4715 6.57381C19.1447 6.22827 18.3789 5.44848 17.1742 4.23443C15.3157 2.37599 14.3305 1.40008 14.2184 1.30669C14.0877 1.22264 13.9569 1.16194 13.8262 1.12459C13.6954 1.08723 13.5413 1.06388 13.3639 1.05454C13.1585 1.0452 12.995 1.05454 12.8736 1.08256Z" fill="#FCFCFC"/>
</g>
<defs>
<clipPath id="clip0_2293_29071">
<rect width="20.27" height="16.09" fill="white" transform="matrix(1 0 0 -1 0 16.0898)"/>
</clipPath>
</defs>
</svg>
