<svg width="25" height="23" viewBox="0 0 25 23" fill="none" xmlns="http://www.w3.org/2000/svg">
<path d="M18.8691 0.846191H5.14612C2.304 0.846191 0 2.97161 0 5.59344V18.2528C0 20.8746 2.304 23 5.14612 23H18.8691C21.7112 23 24.0152 20.8746 24.0152 18.2528V5.59344C24.0152 2.97161 21.7112 0.846191 18.8691 0.846191Z" fill="url(#paint0_radial_3202_5711)"/>
<path d="M18.8691 0.846191H5.14612C2.304 0.846191 0 2.97161 0 5.59344V18.2528C0 20.8746 2.304 23 5.14612 23H18.8691C21.7112 23 24.0152 20.8746 24.0152 18.2528V5.59344C24.0152 2.97161 21.7112 0.846191 18.8691 0.846191Z" fill="url(#paint1_radial_3202_5711)"/>
<path d="M18.8691 0.846191H5.14612C2.304 0.846191 0 2.97161 0 5.59344V18.2528C0 20.8746 2.304 23 5.14612 23H18.8691C21.7112 23 24.0152 20.8746 24.0152 18.2528V5.59344C24.0152 2.97161 21.7112 0.846191 18.8691 0.846191Z" fill="url(#paint2_radial_3202_5711)"/>
<path d="M18.0115 7.57158C18.0115 8.22702 17.4355 8.75839 16.725 8.75839C16.0145 8.75839 15.4385 8.22702 15.4385 7.57158C15.4385 6.91612 16.0145 6.38477 16.725 6.38477C17.4355 6.38477 18.0115 6.91612 18.0115 7.57158Z" fill="white"/>
<path fill-rule="evenodd" clip-rule="evenodd" d="M12.0077 15.8794C14.3761 15.8794 16.2961 14.1082 16.2961 11.9233C16.2961 9.73849 14.3761 7.96729 12.0077 7.96729C9.63926 7.96729 7.71924 9.73849 7.71924 11.9233C7.71924 14.1082 9.63926 15.8794 12.0077 15.8794ZM12.0077 14.297C13.4288 14.297 14.5807 13.2343 14.5807 11.9233C14.5807 10.6124 13.4288 9.5497 12.0077 9.5497C10.5866 9.5497 9.43461 10.6124 9.43461 11.9233C9.43461 13.2343 10.5866 14.297 12.0077 14.297Z" fill="white"/>
<path fill-rule="evenodd" clip-rule="evenodd" d="M3.43066 11.6068C3.43066 8.94814 3.43066 7.61875 3.99156 6.60328C4.48493 5.71002 5.27219 4.98378 6.2405 4.52865C7.34129 4.01123 8.78237 4.01123 11.6645 4.01123H12.3506C15.2327 4.01123 16.6738 4.01123 17.7745 4.52865C18.7429 4.98378 19.5301 5.71002 20.0235 6.60328C20.5844 7.61875 20.5844 8.94814 20.5844 11.6068V12.2398C20.5844 14.8985 20.5844 16.2279 20.0235 17.2433C19.5301 18.1366 18.7429 18.8629 17.7745 19.318C16.6738 19.8354 15.2327 19.8354 12.3506 19.8354H11.6645C8.78237 19.8354 7.34129 19.8354 6.2405 19.318C5.27219 18.8629 4.48493 18.1366 3.99156 17.2433C3.43066 16.2279 3.43066 14.8985 3.43066 12.2398V11.6068ZM11.6645 5.59365H12.3506C13.82 5.59365 14.8188 5.59488 15.5909 5.65307C16.343 5.70975 16.7276 5.81249 16.9958 5.93859C17.6413 6.24202 18.1662 6.72618 18.4951 7.32165C18.6318 7.56914 18.7432 7.92392 18.8046 8.61773C18.8677 9.32997 18.869 10.2513 18.869 11.6068V12.2398C18.869 13.5953 18.8677 14.5167 18.8046 15.2289C18.7432 15.9227 18.6318 16.2775 18.4951 16.525C18.1662 17.1205 17.6413 17.6046 16.9958 17.908C16.7276 18.0341 16.343 18.1369 15.5909 18.1936C14.8188 18.2517 13.82 18.253 12.3506 18.253H11.6645C10.1951 18.253 9.19629 18.2517 8.4242 18.1936C7.6721 18.1369 7.28751 18.0341 7.01923 17.908C6.37372 17.6046 5.84889 17.1205 5.51996 16.525C5.38327 16.2775 5.27189 15.9227 5.21045 15.2289C5.14738 14.5167 5.14604 13.5953 5.14604 12.2398V11.6068C5.14604 10.2513 5.14738 9.32997 5.21045 8.61773C5.27189 7.92392 5.38327 7.56914 5.51996 7.32165C5.84889 6.72618 6.37372 6.24202 7.01923 5.93859C7.28751 5.81249 7.6721 5.70975 8.4242 5.65307C9.19629 5.59488 10.1951 5.59365 11.6645 5.59365Z" fill="white"/>
<defs>
<radialGradient id="paint0_radial_3202_5711" cx="0" cy="0" r="1" gradientUnits="userSpaceOnUse" gradientTransform="translate(8.57687 17.4616) rotate(-53.1854) scale(20.7542 21.2942)">
<stop stop-color="#B13589"/>
<stop offset="0.79309" stop-color="#C62F94"/>
<stop offset="1" stop-color="#8A3AC8"/>
</radialGradient>
<radialGradient id="paint1_radial_3202_5711" cx="0" cy="0" r="1" gradientUnits="userSpaceOnUse" gradientTransform="translate(7.71918 23.7912) rotate(-63.3273) scale(18.1513 19.0856)">
<stop stop-color="#E0E8B7"/>
<stop offset="0.444662" stop-color="#FB8A2E"/>
<stop offset="0.71474" stop-color="#E2425C"/>
<stop offset="1" stop-color="#E2425C" stop-opacity="0"/>
</radialGradient>
<radialGradient id="paint2_radial_3202_5711" cx="0" cy="0" r="1" gradientUnits="userSpaceOnUse" gradientTransform="translate(-1.28653 1.6374) rotate(-7.50743) scale(33.3065 6.59139)">
<stop offset="0.156701" stop-color="#406ADC"/>
<stop offset="0.467799" stop-color="#6A45BE"/>
<stop offset="1" stop-color="#6A45BE" stop-opacity="0"/>
</radialGradient>
</defs>
</svg>
