<svg width="37" height="24" viewBox="0 0 37 24" fill="none" xmlns="http://www.w3.org/2000/svg">
<path fill-rule="evenodd" clip-rule="evenodd" d="M14.3834 16.5897L14.3823 7.40052L24.111 12.0109L14.3834 16.5897ZM35.7446 5.80819C35.7446 5.80819 35.3924 3.5546 34.3133 2.5622C32.9439 1.2591 31.4091 1.25296 30.7059 1.17733C25.6671 0.846187 18.109 0.846191 18.109 0.846191H18.0933C18.0933 0.846191 10.5352 0.846187 5.49646 1.17733C4.79207 1.25296 3.2584 1.2591 1.88788 2.5622C0.808798 3.5546 0.457723 5.80819 0.457723 5.80819C0.457723 5.80819 0.0976562 8.45526 0.0976562 11.1013V13.5828C0.0976562 16.2299 0.457723 18.876 0.457723 18.876C0.457723 18.876 0.808798 21.1296 1.88788 22.122C3.2584 23.4251 5.05762 23.3842 5.85877 23.5201C8.73933 23.7715 18.1012 23.8492 18.1012 23.8492C18.1012 23.8492 25.6671 23.839 30.7059 23.5078C31.4091 23.4312 32.9439 23.4251 34.3133 22.122C35.3924 21.1296 35.7446 18.876 35.7446 18.876C35.7446 18.876 36.1047 16.2299 36.1047 13.5828V11.1013C36.1047 8.45526 35.7446 5.80819 35.7446 5.80819Z" fill="#CE1312"/>
</svg>
