<svg width="27" height="24" viewBox="0 0 27 24" fill="none" xmlns="http://www.w3.org/2000/svg">
<path fill-rule="evenodd" clip-rule="evenodd" d="M13.0574 0C5.87363 0 0.0483398 5.37237 0.0483398 12.0007C0.0483398 16.913 3.25165 21.1353 7.83632 22.991C7.7996 22.1542 7.8302 21.1466 8.06119 20.235C8.31207 19.2612 9.73473 13.6969 9.73473 13.6969C9.73473 13.6969 9.32016 12.9307 9.32016 11.7975C9.32016 10.0194 10.4384 8.69148 11.829 8.69148C13.0115 8.69148 13.5836 9.51138 13.5836 10.4936C13.5836 11.5901 12.8248 13.2313 12.4348 14.7511C12.1089 16.0254 13.1262 17.0626 14.4877 17.0626C16.9521 17.0626 18.6119 14.1429 18.6119 10.6827C18.6119 8.05363 16.692 6.08502 13.1996 6.08502C9.25439 6.08502 6.79608 8.79873 6.79608 11.83C6.79608 12.8771 7.12957 13.6137 7.65275 14.1838C7.89445 14.4477 7.92657 14.5521 7.83938 14.8541C7.77819 15.0729 7.63438 15.6063 7.57472 15.8165C7.48753 16.1199 7.22136 16.23 6.92459 16.1171C5.10571 15.4327 4.25976 13.5968 4.25976 11.5322C4.25976 8.12419 7.37586 4.03458 13.5561 4.03458C18.5232 4.03458 21.7922 7.35227 21.7922 10.9099C21.7922 15.6176 18.9561 19.1342 14.7722 19.1342C13.3694 19.1342 12.0477 18.4343 11.5949 17.6398C11.5949 17.6398 10.8392 20.4043 10.6801 20.9377C10.4048 21.8621 9.86476 22.7878 9.37065 23.5075C10.5409 23.8264 11.7769 24 13.0574 24C20.2411 24 26.0648 18.6276 26.0648 12.0007C26.0648 5.37237 20.2411 0 13.0574 0Z" fill="#CC2127"/>
</svg>
